{
	"asset":{
		"generator":"Khronos glTF Blender I/O v4.0.44",
		"version":"2.0"
	},
	"extensionsUsed":[
		"KHR_texture_transform"
	],
	"extensionsRequired":[
		"KHR_texture_transform"
	],
	"scene":0,
	"scenes":[
		{
			"name":"Scene",
			"nodes":[
				0,
				1,
				2,
				3,
				4,
				5,
				6
			]
		}
	],
	"nodes":[
		{
			"mesh":0,
			"name":"Cube",
			"rotation":[
				1,
				0,
				0,
				0
			],
			"scale":[
				-7.905613422393799,
				-0.42881453037261963,
				-2.0615527629852295
			],
			"translation":[
				0.13569463789463043,
				-0.013192477636039257,
				-0.038906943053007126
			]
		},
		{
			"mesh":1,
			"name":"Cube.001",
			"rotation":[
				1,
				0,
				0,
				0
			],
			"scale":[
				-7.867941856384277,
				-0.435882568359375,
				-2.1536293029785156
			],
			"translation":[
				0.18465183675289154,
				0.010491635650396347,
				-0.023067723959684372
			]
		},
		{
			"mesh":2,
			"name":"Plane",
			"rotation":[
				0,
				0,
				-0.7071068286895752,
				0.7071068286895752
			],
			"scale":[
				0.4228304624557495,
				1,
				0.9688630104064941
			],
			"translation":[
				-8.029882431030273,
				0.20405305922031403,
				0.60784912109375
			]
		},
		{
			"mesh":3,
			"name":"Cube.002",
			"rotation":[
				1,
				0,
				0,
				0
			],
			"scale":[
				-7.799226760864258,
				-0.40357834100723267,
				-1.9402282238006592
			],
			"translation":[
				0.1312626302242279,
				-0.7017900943756104,
				0.024415500462055206
			]
		},
		{
			"mesh":4,
			"name":"Plane.002",
			"translation":[
				5.772176265716553,
				1.2881925106048584,
				0
			]
		},
		{
			"mesh":5,
			"name":"Plane.003",
			"rotation":[
				0.7071068286895752,
				0,
				0,
				0.7071068286895752
			],
			"translation":[
				-1.5057880878448486,
				4.297479629516602,
				-0.03263041377067566
			]
		},
		{
			"mesh":6,
			"name":"Plane.004",
			"rotation":[
				-0.057624928653240204,
				-0.0024254878517240286,
				0.6054283976554871,
				0.7938072681427002
			],
			"scale":[
				0.07071830332279205,
				0.0979025810956955,
				0.0994013249874115
			],
			"translation":[
				-6.988563537597656,
				2.962747097015381,
				0.3205905556678772
			]
		}
	],
	"materials":[
		{
			"doubleSided":true,
			"name":"Material",
			"pbrMetallicRoughness":{
				"baseColorTexture":{
					"extensions":{
						"KHR_texture_transform":{
							"offset":[
								0,
								-9.099999606609344
							],
							"scale":[
								1,
								9.899999618530273
							]
						}
					},
					"index":0
				},
				"metallicFactor":0,
				"roughnessFactor":0.5
			}
		},
		{
			"doubleSided":true,
			"name":"Material.002",
			"pbrMetallicRoughness":{
				"baseColorFactor":[
					0.800481915473938,
					0.16392748057842255,
					0,
					1
				],
				"metallicFactor":0,
				"roughnessFactor":0.5
			}
		},
		{
			"doubleSided":true,
			"name":"Material.003",
			"pbrMetallicRoughness":{
				"baseColorFactor":[
					0.800000011920929,
					0.800000011920929,
					0.800000011920929,
					1
				],
				"metallicFactor":0,
				"roughnessFactor":0.5
			}
		},
		{
			"doubleSided":true,
			"name":"Material.009",
			"pbrMetallicRoughness":{
				"baseColorFactor":[
					0,
					0,
					0,
					1
				],
				"metallicFactor":0,
				"roughnessFactor":0.5
			}
		},
		{
			"doubleSided":true,
			"name":"Material.001",
			"pbrMetallicRoughness":{
				"baseColorFactor":[
					0.800000011920929,
					0.800000011920929,
					0.800000011920929,
					1
				],
				"metallicFactor":0,
				"roughnessFactor":0.5
			}
		},
		{
			"doubleSided":true,
			"name":"Material.004",
			"pbrMetallicRoughness":{
				"baseColorFactor":[
					0.8003076910972595,
					0.004743250552564859,
					0,
					1
				],
				"metallicFactor":0,
				"roughnessFactor":0.5
			}
		},
		{
			"doubleSided":true,
			"name":"Material.008",
			"pbrMetallicRoughness":{
				"baseColorFactor":[
					0.8001260757446289,
					0.001988797914236784,
					0,
					1
				],
				"metallicFactor":0,
				"roughnessFactor":0.5
			}
		},
		{
			"doubleSided":true,
			"name":"Material.010",
			"pbrMetallicRoughness":{
				"baseColorFactor":[
					0,
					0,
					0,
					1
				],
				"metallicFactor":0,
				"roughnessFactor":0.8149605989456177
			}
		},
		{
			"doubleSided":true,
			"name":"Material.012",
			"pbrMetallicRoughness":{
				"baseColorFactor":[
					0.8004242181777954,
					0,
					0.007833734154701233,
					1
				],
				"metallicFactor":0,
				"roughnessFactor":0.5
			}
		},
		{
			"doubleSided":true,
			"name":"Material.013",
			"pbrMetallicRoughness":{
				"baseColorFactor":[
					0,
					0,
					0,
					1
				],
				"metallicFactor":0,
				"roughnessFactor":0.5
			}
		}
	],
	"meshes":[
		{
			"name":"Cube",
			"primitives":[
				{
					"attributes":{
						"POSITION":0,
						"NORMAL":1,
						"TEXCOORD_0":2
					},
					"indices":3,
					"material":0
				},
				{
					"attributes":{
						"POSITION":4,
						"NORMAL":5,
						"TEXCOORD_0":6
					},
					"indices":7,
					"material":1
				},
				{
					"attributes":{
						"POSITION":8,
						"NORMAL":9,
						"TEXCOORD_0":10
					},
					"indices":11,
					"material":2
				},
				{
					"attributes":{
						"POSITION":12,
						"NORMAL":13,
						"TEXCOORD_0":14
					},
					"indices":15,
					"material":3
				}
			]
		},
		{
			"name":"Cube.001",
			"primitives":[
				{
					"attributes":{
						"POSITION":16,
						"NORMAL":17,
						"TEXCOORD_0":18
					},
					"indices":19,
					"material":4
				}
			]
		},
		{
			"name":"Plane",
			"primitives":[
				{
					"attributes":{
						"POSITION":20,
						"NORMAL":21,
						"TEXCOORD_0":22
					},
					"indices":23,
					"material":5
				}
			]
		},
		{
			"name":"Cube.002",
			"primitives":[
				{
					"attributes":{
						"POSITION":24,
						"NORMAL":25,
						"TEXCOORD_0":26
					},
					"indices":27,
					"material":6
				}
			]
		},
		{
			"name":"Plane.001",
			"primitives":[
				{
					"attributes":{
						"POSITION":28,
						"NORMAL":29,
						"TEXCOORD_0":30
					},
					"indices":31,
					"material":7
				}
			]
		},
		{
			"name":"Plane.003",
			"primitives":[
				{
					"attributes":{
						"POSITION":32,
						"NORMAL":33,
						"TEXCOORD_0":34
					},
					"indices":35,
					"material":8
				}
			]
		},
		{
			"name":"Plane.004",
			"primitives":[
				{
					"attributes":{
						"POSITION":36,
						"NORMAL":37,
						"TEXCOORD_0":38
					},
					"indices":39,
					"material":9
				}
			]
		}
	],
	"textures":[
		{
			"sampler":0,
			"source":0
		}
	],
	"images":[
		{
			"mimeType":"image/jpeg",
			"name":"Black_and_white_checkered_pattern",
			"uri":"Black_and_white_checkered_pattern.jpg"
		}
	],
	"accessors":[
		{
			"bufferView":0,
			"componentType":5126,
			"count":231,
			"max":[
				0.9765444397926331,
				2.6675586700439453,
				1.2541673183441162
			],
			"min":[
				-0.9988545775413513,
				-2.4656081199645996,
				-1.4006150960922241
			],
			"type":"VEC3"
		},
		{
			"bufferView":1,
			"componentType":5126,
			"count":231,
			"type":"VEC3"
		},
		{
			"bufferView":2,
			"componentType":5126,
			"count":231,
			"type":"VEC2"
		},
		{
			"bufferView":3,
			"componentType":5123,
			"count":597,
			"type":"SCALAR"
		},
		{
			"bufferView":4,
			"componentType":5126,
			"count":52,
			"max":[
				0.9688372611999512,
				-0.6685192584991455,
				1.180346965789795
			],
			"min":[
				-0.9602207541465759,
				-2.478942632675171,
				-1.3270591497421265
			],
			"type":"VEC3"
		},
		{
			"bufferView":5,
			"componentType":5126,
			"count":52,
			"type":"VEC3"
		},
		{
			"bufferView":6,
			"componentType":5126,
			"count":52,
			"type":"VEC2"
		},
		{
			"bufferView":7,
			"componentType":5123,
			"count":144,
			"type":"SCALAR"
		},
		{
			"bufferView":8,
			"componentType":5126,
			"count":576,
			"max":[
				0.9765444397926331,
				3.2762317657470703,
				1.2541673183441162
			],
			"min":[
				-0.9988545775413513,
				-2.478942632675171,
				-1.4006150960922241
			],
			"type":"VEC3"
		},
		{
			"bufferView":9,
			"componentType":5126,
			"count":576,
			"type":"VEC3"
		},
		{
			"bufferView":10,
			"componentType":5126,
			"count":576,
			"type":"VEC2"
		},
		{
			"bufferView":11,
			"componentType":5123,
			"count":1473,
			"type":"SCALAR"
		},
		{
			"bufferView":12,
			"componentType":5126,
			"count":112,
			"max":[
				0.9586549997329712,
				3.0102691650390625,
				1.1670000553131104
			],
			"min":[
				-0.9632107019424438,
				1.3485970497131348,
				-1.2677698135375977
			],
			"type":"VEC3"
		},
		{
			"bufferView":13,
			"componentType":5126,
			"count":112,
			"type":"VEC3"
		},
		{
			"bufferView":14,
			"componentType":5126,
			"count":112,
			"type":"VEC2"
		},
		{
			"bufferView":15,
			"componentType":5123,
			"count":288,
			"type":"SCALAR"
		},
		{
			"bufferView":16,
			"componentType":5126,
			"count":206,
			"max":[
				-0.2649429738521576,
				2.6117072105407715,
				1.2420157194137573
			],
			"min":[
				-0.9988545775413513,
				-2.4898571968078613,
				-1.4006150960922241
			],
			"type":"VEC3"
		},
		{
			"bufferView":17,
			"componentType":5126,
			"count":206,
			"type":"VEC3"
		},
		{
			"bufferView":18,
			"componentType":5126,
			"count":206,
			"type":"VEC2"
		},
		{
			"bufferView":19,
			"componentType":5123,
			"count":540,
			"type":"SCALAR"
		},
		{
			"bufferView":20,
			"componentType":5126,
			"count":2178,
			"max":[
				1.0000312328338623,
				0.7818632125854492,
				0.9898623824119568
			],
			"min":[
				-1.0000919103622437,
				0.4173130989074707,
				-0.9938284158706665
			],
			"type":"VEC3"
		},
		{
			"bufferView":21,
			"componentType":5126,
			"count":2178,
			"type":"VEC3"
		},
		{
			"bufferView":22,
			"componentType":5126,
			"count":2178,
			"type":"VEC2"
		},
		{
			"bufferView":23,
			"componentType":5123,
			"count":13056,
			"type":"SCALAR"
		},
		{
			"bufferView":24,
			"componentType":5126,
			"count":288,
			"max":[
				0.9476975798606873,
				2.025265693664551,
				1.1891138553619385
			],
			"min":[
				-0.9678402543067932,
				-0.23149333894252777,
				-1.334334373474121
			],
			"type":"VEC3"
		},
		{
			"bufferView":25,
			"componentType":5126,
			"count":288,
			"type":"VEC3"
		},
		{
			"bufferView":26,
			"componentType":5126,
			"count":288,
			"type":"VEC2"
		},
		{
			"bufferView":27,
			"componentType":5123,
			"count":1704,
			"type":"SCALAR"
		},
		{
			"bufferView":28,
			"componentType":5126,
			"count":29312,
			"max":[
				1.8260999917984009,
				1.4802453517913818,
				2.3179173469543457
			],
			"min":[
				-5.958719730377197,
				-0.8691374063491821,
				-2.637929916381836
			],
			"type":"VEC3"
		},
		{
			"bufferView":29,
			"componentType":5126,
			"count":29312,
			"type":"VEC3"
		},
		{
			"bufferView":30,
			"componentType":5126,
			"count":29312,
			"type":"VEC2"
		},
		{
			"bufferView":31,
			"componentType":5123,
			"count":43968,
			"type":"SCALAR"
		},
		{
			"bufferView":32,
			"componentType":5126,
			"count":1046,
			"max":[
				5.793193817138672,
				2.125978946685791,
				4.724528789520264
			],
			"min":[
				-5.386721134185791,
				-2.40558123588562,
				0.13091571629047394
			],
			"type":"VEC3"
		},
		{
			"bufferView":33,
			"componentType":5126,
			"count":1046,
			"type":"VEC3"
		},
		{
			"bufferView":34,
			"componentType":5126,
			"count":1046,
			"type":"VEC2"
		},
		{
			"bufferView":35,
			"componentType":5123,
			"count":6264,
			"type":"SCALAR"
		},
		{
			"bufferView":36,
			"componentType":5126,
			"count":2470,
			"max":[
				1.1457096338272095,
				-0.09666580706834793,
				15.929375648498535
			],
			"min":[
				-27.835124969482422,
				-31.9603271484375,
				-19.78791046142578
			],
			"type":"VEC3"
		},
		{
			"bufferView":37,
			"componentType":5126,
			"count":2470,
			"type":"VEC3"
		},
		{
			"bufferView":38,
			"componentType":5126,
			"count":2470,
			"type":"VEC2"
		},
		{
			"bufferView":39,
			"componentType":5123,
			"count":14808,
			"type":"SCALAR"
		}
	],
	"bufferViews":[
		{
			"buffer":0,
			"byteLength":2772,
			"byteOffset":0,
			"target":34962
		},
		{
			"buffer":0,
			"byteLength":2772,
			"byteOffset":2772,
			"target":34962
		},
		{
			"buffer":0,
			"byteLength":1848,
			"byteOffset":5544,
			"target":34962
		},
		{
			"buffer":0,
			"byteLength":1194,
			"byteOffset":7392,
			"target":34963
		},
		{
			"buffer":0,
			"byteLength":624,
			"byteOffset":8588,
			"target":34962
		},
		{
			"buffer":0,
			"byteLength":624,
			"byteOffset":9212,
			"target":34962
		},
		{
			"buffer":0,
			"byteLength":416,
			"byteOffset":9836,
			"target":34962
		},
		{
			"buffer":0,
			"byteLength":288,
			"byteOffset":10252,
			"target":34963
		},
		{
			"buffer":0,
			"byteLength":6912,
			"byteOffset":10540,
			"target":34962
		},
		{
			"buffer":0,
			"byteLength":6912,
			"byteOffset":17452,
			"target":34962
		},
		{
			"buffer":0,
			"byteLength":4608,
			"byteOffset":24364,
			"target":34962
		},
		{
			"buffer":0,
			"byteLength":2946,
			"byteOffset":28972,
			"target":34963
		},
		{
			"buffer":0,
			"byteLength":1344,
			"byteOffset":31920,
			"target":34962
		},
		{
			"buffer":0,
			"byteLength":1344,
			"byteOffset":33264,
			"target":34962
		},
		{
			"buffer":0,
			"byteLength":896,
			"byteOffset":34608,
			"target":34962
		},
		{
			"buffer":0,
			"byteLength":576,
			"byteOffset":35504,
			"target":34963
		},
		{
			"buffer":0,
			"byteLength":2472,
			"byteOffset":36080,
			"target":34962
		},
		{
			"buffer":0,
			"byteLength":2472,
			"byteOffset":38552,
			"target":34962
		},
		{
			"buffer":0,
			"byteLength":1648,
			"byteOffset":41024,
			"target":34962
		},
		{
			"buffer":0,
			"byteLength":1080,
			"byteOffset":42672,
			"target":34963
		},
		{
			"buffer":0,
			"byteLength":26136,
			"byteOffset":43752,
			"target":34962
		},
		{
			"buffer":0,
			"byteLength":26136,
			"byteOffset":69888,
			"target":34962
		},
		{
			"buffer":0,
			"byteLength":17424,
			"byteOffset":96024,
			"target":34962
		},
		{
			"buffer":0,
			"byteLength":26112,
			"byteOffset":113448,
			"target":34963
		},
		{
			"buffer":0,
			"byteLength":3456,
			"byteOffset":139560,
			"target":34962
		},
		{
			"buffer":0,
			"byteLength":3456,
			"byteOffset":143016,
			"target":34962
		},
		{
			"buffer":0,
			"byteLength":2304,
			"byteOffset":146472,
			"target":34962
		},
		{
			"buffer":0,
			"byteLength":3408,
			"byteOffset":148776,
			"target":34963
		},
		{
			"buffer":0,
			"byteLength":351744,
			"byteOffset":152184,
			"target":34962
		},
		{
			"buffer":0,
			"byteLength":351744,
			"byteOffset":503928,
			"target":34962
		},
		{
			"buffer":0,
			"byteLength":234496,
			"byteOffset":855672,
			"target":34962
		},
		{
			"buffer":0,
			"byteLength":87936,
			"byteOffset":1090168,
			"target":34963
		},
		{
			"buffer":0,
			"byteLength":12552,
			"byteOffset":1178104,
			"target":34962
		},
		{
			"buffer":0,
			"byteLength":12552,
			"byteOffset":1190656,
			"target":34962
		},
		{
			"buffer":0,
			"byteLength":8368,
			"byteOffset":1203208,
			"target":34962
		},
		{
			"buffer":0,
			"byteLength":12528,
			"byteOffset":1211576,
			"target":34963
		},
		{
			"buffer":0,
			"byteLength":29640,
			"byteOffset":1224104,
			"target":34962
		},
		{
			"buffer":0,
			"byteLength":29640,
			"byteOffset":1253744,
			"target":34962
		},
		{
			"buffer":0,
			"byteLength":19760,
			"byteOffset":1283384,
			"target":34962
		},
		{
			"buffer":0,
			"byteLength":29616,
			"byteOffset":1303144,
			"target":34963
		}
	],
	"samplers":[
		{
			"magFilter":9729,
			"minFilter":9987
		}
	],
	"buffers":[
		{
			"byteLength":1332760,
			"uri":"1.bin"
		}
	]
}
